<svg id="visual" viewBox="0 0 1920 1080" width="1920" height="1080" xmlns="http://www.w3.org/2000/svg" xmlns:xlink="http://www.w3.org/1999/xlink" version="1.1"><rect x="0" y="0" width="1920" height="1080" fill="#001220"></rect><defs><linearGradient id="grad1_0" x1="43.8%" y1="0%" x2="100%" y2="100%"><stop offset="14.444444444444446%" stop-color="#6600ff" stop-opacity="1"></stop><stop offset="85.55555555555554%" stop-color="#6600ff" stop-opacity="1"></stop></linearGradient></defs><defs><linearGradient id="grad1_1" x1="43.8%" y1="0%" x2="100%" y2="100%"><stop offset="14.444444444444446%" stop-color="#6600ff" stop-opacity="1"></stop><stop offset="85.55555555555554%" stop-color="#002ce8" stop-opacity="1"></stop></linearGradient></defs><defs><linearGradient id="grad1_2" x1="43.8%" y1="0%" x2="100%" y2="100%"><stop offset="14.444444444444446%" stop-color="#0035cb" stop-opacity="1"></stop><stop offset="85.55555555555554%" stop-color="#002ce8" stop-opacity="1"></stop></linearGradient></defs><defs><linearGradient id="grad1_3" x1="43.8%" y1="0%" x2="100%" y2="100%"><stop offset="14.444444444444446%" stop-color="#0035cb" stop-opacity="1"></stop><stop offset="85.55555555555554%" stop-color="#0034ab" stop-opacity="1"></stop></linearGradient></defs><defs><linearGradient id="grad1_4" x1="43.8%" y1="0%" x2="100%" y2="100%"><stop offset="14.444444444444446%" stop-color="#002f88" stop-opacity="1"></stop><stop offset="85.55555555555554%" stop-color="#0034ab" stop-opacity="1"></stop></linearGradient></defs><defs><linearGradient id="grad1_5" x1="43.8%" y1="0%" x2="100%" y2="100%"><stop offset="14.444444444444446%" stop-color="#002f88" stop-opacity="1"></stop><stop offset="85.55555555555554%" stop-color="#002764" stop-opacity="1"></stop></linearGradient></defs><defs><linearGradient id="grad1_6" x1="43.8%" y1="0%" x2="100%" y2="100%"><stop offset="14.444444444444446%" stop-color="#001d41" stop-opacity="1"></stop><stop offset="85.55555555555554%" stop-color="#002764" stop-opacity="1"></stop></linearGradient></defs><defs><linearGradient id="grad1_7" x1="43.8%" y1="0%" x2="100%" y2="100%"><stop offset="14.444444444444446%" stop-color="#001d41" stop-opacity="1"></stop><stop offset="85.55555555555554%" stop-color="#001220" stop-opacity="1"></stop></linearGradient></defs><defs><linearGradient id="grad2_0" x1="0%" y1="0%" x2="56.3%" y2="100%"><stop offset="14.444444444444446%" stop-color="#6600ff" stop-opacity="1"></stop><stop offset="85.55555555555554%" stop-color="#6600ff" stop-opacity="1"></stop></linearGradient></defs><defs><linearGradient id="grad2_1" x1="0%" y1="0%" x2="56.3%" y2="100%"><stop offset="14.444444444444446%" stop-color="#002ce8" stop-opacity="1"></stop><stop offset="85.55555555555554%" stop-color="#6600ff" stop-opacity="1"></stop></linearGradient></defs><defs><linearGradient id="grad2_2" x1="0%" y1="0%" x2="56.3%" y2="100%"><stop offset="14.444444444444446%" stop-color="#002ce8" stop-opacity="1"></stop><stop offset="85.55555555555554%" stop-color="#0035cb" stop-opacity="1"></stop></linearGradient></defs><defs><linearGradient id="grad2_3" x1="0%" y1="0%" x2="56.3%" y2="100%"><stop offset="14.444444444444446%" stop-color="#0034ab" stop-opacity="1"></stop><stop offset="85.55555555555554%" stop-color="#0035cb" stop-opacity="1"></stop></linearGradient></defs><defs><linearGradient id="grad2_4" x1="0%" y1="0%" x2="56.3%" y2="100%"><stop offset="14.444444444444446%" stop-color="#0034ab" stop-opacity="1"></stop><stop offset="85.55555555555554%" stop-color="#002f88" stop-opacity="1"></stop></linearGradient></defs><defs><linearGradient id="grad2_5" x1="0%" y1="0%" x2="56.3%" y2="100%"><stop offset="14.444444444444446%" stop-color="#002764" stop-opacity="1"></stop><stop offset="85.55555555555554%" stop-color="#002f88" stop-opacity="1"></stop></linearGradient></defs><defs><linearGradient id="grad2_6" x1="0%" y1="0%" x2="56.3%" y2="100%"><stop offset="14.444444444444446%" stop-color="#002764" stop-opacity="1"></stop><stop offset="85.55555555555554%" stop-color="#001d41" stop-opacity="1"></stop></linearGradient></defs><defs><linearGradient id="grad2_7" x1="0%" y1="0%" x2="56.3%" y2="100%"><stop offset="14.444444444444446%" stop-color="#001220" stop-opacity="1"></stop><stop offset="85.55555555555554%" stop-color="#001d41" stop-opacity="1"></stop></linearGradient></defs><g transform="translate(1920, 0)"><path d="M0 972C-130 962.9 -260 953.8 -372 898C-483.9 842.2 -577.9 739.6 -634.3 634.3C-690.6 528.9 -709.4 420.7 -759.4 314.6C-809.5 208.4 -890.7 104.2 -972 0L0 0Z" fill="#001830"></path><path d="M0 850.5C-113.7 842.6 -227.5 834.6 -325.5 785.8C-423.5 736.9 -505.7 647.2 -555 555C-604.3 462.8 -620.7 368.2 -664.5 275.2C-708.3 182.3 -779.4 91.2 -850.5 0L0 0Z" fill="#002252"></path><path d="M0 729C-97.5 722.2 -195 715.4 -279 673.5C-363 631.6 -433.4 554.7 -475.7 475.7C-518 396.7 -532.1 315.6 -569.6 235.9C-607.1 156.3 -668 78.1 -729 0L0 0Z" fill="#002b76"></path><path d="M0 607.5C-81.2 601.8 -162.5 596.1 -232.5 561.3C-302.5 526.4 -361.2 462.3 -396.4 396.4C-431.6 330.6 -443.4 263 -474.6 196.6C-505.9 130.2 -556.7 65.1 -607.5 0L0 0Z" fill="#003299"></path><path d="M0 486C-65 481.5 -130 476.9 -186 449C-242 421.1 -289 369.8 -317.1 317.1C-345.3 264.5 -354.7 210.4 -379.7 157.3C-404.7 104.2 -445.4 52.1 -486 0L0 0Z" fill="#0035bb"></path><path d="M0 364.5C-48.7 361.1 -97.5 357.7 -139.5 336.8C-181.5 315.8 -216.7 277.4 -237.9 237.9C-259 198.3 -266 157.8 -284.8 118C-303.5 78.1 -334 39.1 -364.5 0L0 0Z" fill="#0032da"></path><path d="M0 243C-32.5 240.7 -65 238.5 -93 224.5C-121 210.5 -144.5 184.9 -158.6 158.6C-172.7 132.2 -177.4 105.2 -189.9 78.6C-202.4 52.1 -222.7 26 -243 0L0 0Z" fill="#4221f4"></path><path d="M0 121.5C-16.2 120.4 -32.5 119.2 -46.5 112.3C-60.5 105.3 -72.2 92.5 -79.3 79.3C-86.3 66.1 -88.7 52.6 -94.9 39.3C-101.2 26 -111.3 13 -121.5 0L0 0Z" fill="#6600ff"></path></g><g transform="translate(0, 1080)"><path d="M0 -972C123.8 -949.8 247.7 -927.5 366.2 -884.2C484.8 -840.8 598.1 -776.2 687.3 -687.3C776.5 -598.4 841.6 -485.2 885.1 -366.6C928.5 -248 950.3 -124 972 0L0 0Z" fill="#001830"></path><path d="M0 -850.5C108.4 -831.1 216.7 -811.6 320.4 -773.6C424.2 -735.7 523.3 -679.2 601.4 -601.4C679.5 -523.6 736.4 -424.6 774.4 -320.8C812.4 -217 831.5 -108.5 850.5 0L0 0Z" fill="#002252"></path><path d="M0 -729C92.9 -712.3 185.7 -695.7 274.7 -663.1C363.6 -630.6 448.6 -582.1 515.5 -515.5C582.4 -448.8 631.2 -363.9 663.8 -275C696.4 -186 712.7 -93 729 0L0 0Z" fill="#002b76"></path><path d="M0 -607.5C77.4 -593.6 154.8 -579.7 228.9 -552.6C303 -525.5 373.8 -485.1 429.6 -429.6C485.3 -374 526 -303.3 553.2 -229.1C580.3 -155 593.9 -77.5 607.5 0L0 0Z" fill="#003299"></path><path d="M0 -486C61.9 -474.9 123.8 -463.8 183.1 -442.1C242.4 -420.4 299 -388.1 343.7 -343.7C388.3 -299.2 420.8 -242.6 442.5 -183.3C464.3 -124 475.1 -62 486 0L0 0Z" fill="#0035bb"></path><path d="M0 -364.5C46.4 -356.2 92.9 -347.8 137.3 -331.6C181.8 -315.3 224.3 -291.1 257.7 -257.7C291.2 -224.4 315.6 -182 331.9 -137.5C348.2 -93 356.3 -46.5 364.5 0L0 0Z" fill="#0032da"></path><path d="M0 -243C31 -237.4 61.9 -231.9 91.6 -221C121.2 -210.2 149.5 -194 171.8 -171.8C194.1 -149.6 210.4 -121.3 221.3 -91.7C232.1 -62 237.6 -31 243 0L0 0Z" fill="#4221f4"></path><path d="M0 -121.5C15.5 -118.7 31 -115.9 45.8 -110.5C60.6 -105.1 74.8 -97 85.9 -85.9C97.1 -74.8 105.2 -60.7 110.6 -45.8C116.1 -31 118.8 -15.5 121.5 0L0 0Z" fill="#6600ff"></path></g></svg>